<?xml version="1.0" encoding="utf-8"?>
<!-- Generator: Adobe Illustrator 16.0.0, SVG Export Plug-In . SVG Version: 6.00 Build 0)  -->
<!DOCTYPE svg PUBLIC "-//W3C//DTD SVG 1.1//EN" "http://www.w3.org/Graphics/SVG/1.1/DTD/svg11.dtd">
<svg version="1.1" id="Layer_1" xmlns="http://www.w3.org/2000/svg" xmlns:xlink="http://www.w3.org/1999/xlink" x="0px" y="0px"
	 width="28px" height="28px" viewBox="5 5 28 28" enable-background="new 5 5 28 28" xml:space="preserve">
<g>
	<path d="M16.822,32.855L16.822,32.855c-3.244-0.511-6.218-2.171-8.377-4.672c-2.183-2.527-3.383-5.76-3.383-9.099
		c0-7.686,6.253-13.938,13.938-13.938c7.687,0,13.938,6.252,13.938,13.938c0,3.339-1.202,6.572-3.384,9.099
		c-2.158,2.501-5.133,4.161-8.375,4.67l-0.002-9.739h3.247l0.619-4.03h-3.866V16.47c0-0.614,0.168-1.134,0.487-1.501
		c0.387-0.448,0.987-0.675,1.785-0.675h1.758v-3.43c-0.013-0.002-1.61-0.272-3.121-0.272c-1.588,0-2.91,0.484-3.827,1.4
		c-0.94,0.942-1.438,2.334-1.438,4.022v3.071h-3.539v4.03h3.539v9.739V32.855z"/>
</g>
</svg>
