<?xml version="1.0" encoding="utf-8"?>
<!-- Generator: Adobe Illustrator 16.0.0, SVG Export Plug-In . SVG Version: 6.00 Build 0)  -->
<!DOCTYPE svg PUBLIC "-//W3C//DTD SVG 1.1//EN" "http://www.w3.org/Graphics/SVG/1.1/DTD/svg11.dtd">
<svg version="1.1" id="Layer_1" xmlns="http://www.w3.org/2000/svg" xmlns:xlink="http://www.w3.org/1999/xlink" x="0px" y="0px"
	 width="841.889px" height="595.281px" viewBox="0 0 841.889 595.281" enable-background="new 0 0 841.889 595.281"
	 xml:space="preserve">
<path fill="#0072FF" d="M403.207,418.528c0,25.027-23.85,45.324-53.236,45.324H243.523c-29.386,0-53.235-20.297-53.235-45.324
	V252.316c0-66.591,63.753-120.888,141.947-120.888h17.737c9.711,0,17.738,6.92,17.738,15.108v30.216
	c0,8.28-8.026,15.108-17.738,15.108h-17.737c-39.097,0-70.973,27.148-70.973,60.456v7.542c0,12.525,11.924,22.674,26.618,22.674
	h62.092c29.387,0,53.236,20.298,53.236,45.325V418.528z M651.602,418.528c0,25.027-23.849,45.324-53.212,45.324H491.918
	c-29.387,0-53.235-20.297-53.235-45.324V252.316c0-66.591,63.777-120.888,141.946-120.888h17.761c9.688,0,17.737,6.92,17.737,15.108
	v30.216c0,8.28-8.05,15.108-17.737,15.108h-17.761c-39.097,0-70.974,27.148-70.974,60.456v7.542
	c0,12.525,11.925,22.674,26.618,22.674h62.116c29.363,0,53.212,20.298,53.212,45.325V418.528z"/>
</svg>
