<?xml version="1.0" encoding="utf-8"?>
<!-- Generator: Adobe Illustrator 16.0.0, SVG Export Plug-In . SVG Version: 6.00 Build 0)  -->
<!DOCTYPE svg PUBLIC "-//W3C//DTD SVG 1.1//EN" "http://www.w3.org/Graphics/SVG/1.1/DTD/svg11.dtd">
<svg version="1.1" id="Layer_1" xmlns="http://www.w3.org/2000/svg" xmlns:xlink="http://www.w3.org/1999/xlink" x="0px" y="0px"
	 width="28px" height="28px" viewBox="5 5 28 28" enable-background="new 5 5 28 28" xml:space="preserve">
<g>
	<path d="M19,21.894c-1.596,0-2.894-1.298-2.894-2.894s1.298-2.894,2.894-2.894s2.894,1.298,2.894,2.894S20.596,21.894,19,21.894z
		 M23.634,13.325c-0.574,0-1.043,0.467-1.043,1.042s0.469,1.042,1.043,1.042c0.575,0,1.042-0.467,1.042-1.042
		S24.208,13.325,23.634,13.325z M19,14.542c-2.458,0-4.458,2-4.458,4.458c0,2.458,2,4.458,4.458,4.458c2.458,0,4.458-2,4.458-4.458
		C23.458,16.542,21.458,14.542,19,14.542z M19,26.116c-2.313,0-2.588-0.009-3.508-0.05c-0.85-0.039-1.308-0.18-1.611-0.3
		c-0.406-0.157-0.694-0.345-0.998-0.649c-0.305-0.304-0.493-0.593-0.65-0.998c-0.119-0.305-0.261-0.763-0.299-1.611
		c-0.042-0.92-0.051-1.194-0.051-3.508s0.009-2.589,0.051-3.508c0.039-0.85,0.18-1.307,0.299-1.611
		c0.157-0.405,0.345-0.694,0.65-0.998c0.304-0.305,0.592-0.493,0.998-0.65c0.304-0.119,0.761-0.26,1.611-0.3
		c0.92-0.041,1.194-0.05,3.508-0.05s2.588,0.009,3.508,0.05c0.851,0.04,1.307,0.181,1.611,0.3c0.405,0.157,0.694,0.345,0.998,0.65
		c0.305,0.303,0.492,0.592,0.649,0.998c0.119,0.304,0.261,0.762,0.3,1.611c0.042,0.919,0.05,1.195,0.05,3.508
		s-0.009,2.588-0.05,3.508c-0.039,0.849-0.18,1.307-0.3,1.611c-0.157,0.405-0.345,0.694-0.649,0.998
		c-0.304,0.305-0.593,0.492-0.998,0.649c-0.305,0.119-0.761,0.261-1.611,0.3C21.588,26.107,21.313,26.116,19,26.116z M19,10.319
		c-2.351,0-2.657,0.01-3.58,0.052c-0.838,0.039-1.488,0.163-2.106,0.403c-0.607,0.237-1.081,0.545-1.537,1.002
		c-0.457,0.455-0.766,0.93-1.002,1.537c-0.241,0.619-0.365,1.269-0.403,2.106c-0.042,0.922-0.053,1.229-0.053,3.58
		c0,2.351,0.01,2.657,0.052,3.579c0.039,0.838,0.163,1.487,0.404,2.106c0.236,0.607,0.544,1.081,1.001,1.537
		c0.456,0.457,0.93,0.766,1.537,1.002c0.619,0.24,1.269,0.365,2.106,0.403c0.921,0.042,1.229,0.052,3.579,0.052
		c2.352,0,2.658-0.012,3.58-0.052c0.838-0.039,1.487-0.163,2.106-0.403c0.606-0.236,1.081-0.545,1.536-1.002
		c0.457-0.456,0.766-0.93,1.002-1.537c0.241-0.619,0.365-1.269,0.404-2.106c0.042-0.921,0.051-1.229,0.051-3.579
		c0-2.351-0.011-2.658-0.051-3.58c-0.039-0.838-0.163-1.488-0.404-2.106c-0.236-0.607-0.545-1.082-1.002-1.537
		c-0.455-0.457-0.93-0.766-1.536-1.002c-0.619-0.241-1.27-0.365-2.106-0.403C21.657,10.33,21.351,10.319,19,10.319z M19,32.889
		c-7.658,0-13.889-6.23-13.889-13.889c0-7.659,6.231-13.889,13.889-13.889c7.658,0,13.889,6.229,13.889,13.889
		C32.889,26.658,26.658,32.889,19,32.889z"/>
</g>
</svg>
