<?xml version="1.0" encoding="utf-8"?>
<!-- Generator: Adobe Illustrator 16.0.0, SVG Export Plug-In . SVG Version: 6.00 Build 0)  -->
<!DOCTYPE svg PUBLIC "-//W3C//DTD SVG 1.1//EN" "http://www.w3.org/Graphics/SVG/1.1/DTD/svg11.dtd">
<svg version="1.1" id="Layer_1" xmlns="http://www.w3.org/2000/svg" xmlns:xlink="http://www.w3.org/1999/xlink" x="0px" y="0px"
	 width="28px" height="28px" viewBox="5 5 28 28" enable-background="new 5 5 28 28" xml:space="preserve">
<g>
	<path d="M12.84,10.676c-1.208,0-2.053,0.775-2.053,1.886c0,1.093,0.843,1.887,2.005,1.887h0.024c1.208,0,2.052-0.776,2.052-1.887
		C14.844,11.435,14.029,10.676,12.84,10.676z M11.001,15.94v10.916h3.628V15.94H11.001z M22.247,18.546
		c1.521,0,1.838,1.342,1.838,2.468v5.84h3.628v-6.259c0-1.605-0.401-2.855-1.193-3.714c-0.723-0.785-1.755-1.199-2.983-1.199
		c-1.86,0-2.725,0.963-3.271,1.802v-1.545h-3.628c0.048,1.011,0,10.817,0,10.916h3.628V20.76c0-0.406,0.038-0.688,0.119-0.888
		C20.509,19.563,21.016,18.546,22.247,18.546z M19,32.978c-7.707,0-13.978-6.271-13.978-13.978c0-7.708,6.271-13.978,13.978-13.978
		S32.978,11.292,32.978,19C32.978,26.707,26.707,32.978,19,32.978z"/>
</g>
</svg>
